<svg xmlns="http://www.w3.org/2000/svg" viewBox="0 0 66.02 56.53"><defs><style>.cls-1{fill:#1e1e1e;}.cls-2{fill:#ff7221;}</style></defs><title>Recurso 3</title><g id="Capa_2" data-name="Capa 2"><g id="ARTE"><path class="cls-1" d="M31.38,46.16c-18.12,0-20.21-7.81-20.21-12.36v-.51H22.46c.14,2.09,1.35,5.48,10.27,5.48h.65c9.11,0,10.13-1.81,10.13-3.67s-1.07-3.25-9.06-3.49l-6-.14c-12.92-.37-16.87-4.74-16.87-10.13v-.42c0-5.15,3.07-10.54,18.82-10.54h3.21c16.36,0,20.08,5.71,20.08,10.92v.46H42.49c-.23-1.3-.93-4.13-10-4.13h-.74c-8.37,0-9,1.48-9,3s.93,2.83,8,3l5.81.1c13,.23,18.26,3.39,18.26,10.27v.65c0,5.71-2.88,11.57-20.26,11.57Z"/><rect class="cls-2" y="51.32" width="21.13" height="5.21"/><rect class="cls-2" x="-7.96" y="43.36" width="21.13" height="5.21" transform="translate(48.58 43.36) rotate(90)"/><rect class="cls-2" x="-7.96" y="7.96" width="21.13" height="5.21" transform="translate(13.17 7.96) rotate(90)"/><rect class="cls-2" width="21.13" height="5.21" transform="translate(21.13 5.21) rotate(180)"/><rect class="cls-2" x="44.89" width="21.13" height="5.21" transform="translate(110.91 5.21) rotate(180)"/><rect class="cls-2" x="52.85" y="7.96" width="21.13" height="5.21" transform="translate(52.85 73.98) rotate(-90)"/><rect class="cls-2" x="52.85" y="43.36" width="21.13" height="5.21" transform="translate(17.45 109.38) rotate(-90)"/><rect class="cls-2" x="44.89" y="51.32" width="21.13" height="5.21"/></g></g></svg>