<svg xmlns="http://www.w3.org/2000/svg" viewBox="0 0 104.01 89.07"><defs><style>.cls-1{fill:#1e1e1e;}</style></defs><title>Recurso 1</title><g id="Capa_2" data-name="Capa 2"><g id="ARTE"><path class="cls-1" d="M49.45,72.72c-28.56,0-31.85-12.3-31.85-19.47v-.81H35.39c.22,3.3,2.12,8.64,16.18,8.64h1c14.35,0,16-2.86,16-5.78,0-3.15-1.68-5.13-14.27-5.5l-9.37-.21c-20.36-.59-26.58-7.47-26.58-16V33c0-8.13,4.83-16.62,29.65-16.62H53c25.77,0,31.63,9,31.63,17.2v.73H66.94c-.36-2.05-1.46-6.51-15.74-6.51H50c-13.18,0-14.13,2.34-14.13,4.68s1.46,4.47,12.59,4.69l9.16.15c20.49.36,28.77,5.34,28.77,16.18v1c0,9-4.54,18.23-31.92,18.23Z"/><rect class="cls-1" y="80.86" width="33.29" height="8.21"/><rect class="cls-1" x="-12.54" y="68.32" width="33.29" height="8.21" transform="translate(76.53 68.32) rotate(90)"/><rect class="cls-1" x="-12.54" y="12.54" width="33.29" height="8.21" transform="translate(20.75 12.54) rotate(90)"/><rect class="cls-1" width="33.29" height="8.21" transform="translate(33.29 8.21) rotate(180)"/><rect class="cls-1" x="70.72" width="33.29" height="8.21" transform="translate(174.74 8.21) rotate(180)"/><rect class="cls-1" x="83.26" y="12.54" width="33.29" height="8.21" transform="translate(83.26 116.55) rotate(-90)"/><rect class="cls-1" x="83.26" y="68.32" width="33.29" height="8.21" transform="translate(27.49 172.33) rotate(-90)"/><rect class="cls-1" x="70.72" y="80.86" width="33.29" height="8.21"/></g></g></svg>