<svg xmlns="http://www.w3.org/2000/svg" viewBox="0 0 140.18 50.34"><title>Recurso 1</title><g id="Capa_2" data-name="Capa 2"><g id="ARTE"><path d="M20.37,28.16c-9.93,0-11.07-4.28-11.07-6.77v-.28h6.18c.08,1.15.74,3,5.62,3h.36c5,0,5.55-1,5.55-2s-.59-1.78-5-1.9l-3.26-.08c-7.07-.2-9.24-2.6-9.24-5.55v-.23c0-2.82,1.68-5.77,10.31-5.77h1.75c9,0,11,3.13,11,6v.25H26.45c-.13-.71-.51-2.26-5.47-2.26h-.41c-4.58,0-4.91.81-4.91,1.63s.51,1.55,4.38,1.62l3.18.05c7.12.13,10,1.86,10,5.63v.35c0,3.13-1.58,6.34-11.1,6.34Z"/><path d="M55.17,8.9v4.3H41.07V16H54.84v4.32H41.07v3.11H55.42v4.4H35.22V8.9Z"/><path d="M66,27.83,56.13,8.9h6.72l7,13.92L76.36,8.9h6.16L73.36,27.83Z"/><path d="M103.61,8.9v4.3H89.51V16h13.76v4.32H89.51v3.11h14.35v4.4H83.66V8.9Z"/><path d="M112.94,8.9,125,20.81V8.9h5.85V27.83H125L112.18,15.28V27.83h-5.86V8.9Z"/><path d="M16.83,41.77c-6.65,0-7.68-3.72-7.68-5.76v-.44c0-2.09.89-5.68,7.68-5.68h.63c6.65,0,7.69,3.18,7.69,4.52v.17H21.34c-.1-.31-.56-1.91-4.2-1.91-3.44,0-4.23,1.54-4.23,3v.19c0,1.36.91,3.15,4.26,3.15,3.72,0,4.09-1.78,4.18-2h3.81v.17c0,1.45-1.14,4.66-7.7,4.66Z"/><path d="M38.33,30.09v8.62h8v2.86H34.74V30.09Z"/><path d="M59.56,41.57H56V30.09h3.59Z"/><path d="M76.87,41.77c-6.65,0-7.68-3.72-7.68-5.76v-.44c0-2.09.89-5.68,7.68-5.68h.63c6.65,0,7.68,3.18,7.68,4.52v.17H81.37c-.09-.31-.55-1.91-4.19-1.91-3.44,0-4.23,1.54-4.23,3v.19c0,1.36.91,3.15,4.26,3.15,3.71,0,4.08-1.78,4.18-2H85.2v.17c0,1.45-1.14,4.66-7.7,4.66Z"/><path d="M94.78,41.57V30.09h3.59v4.78l5.88-4.78h4.56l-6.6,5.25,6.91,6.23h-4.69l-6.06-5.42v5.42Z"/><path d="M123.24,41.77c-6,0-6.71-2.59-6.71-4.11v-.17h3.75c0,.7.44,1.82,3.4,1.82h.22c3,0,3.36-.6,3.36-1.21s-.35-1.08-3-1.16l-2,0c-4.29-.12-5.6-1.57-5.6-3.36v-.14c0-1.71,1-3.5,6.25-3.5H124c5.43,0,6.67,1.9,6.67,3.62v.16h-3.74c-.07-.43-.3-1.37-3.31-1.37h-.25c-2.78,0-3,.49-3,1s.31.94,2.66,1l1.93,0c4.31.08,6.06,1.13,6.06,3.41v.22c0,1.89-1,3.84-6.73,3.84Z"/><rect y="47.48" width="11.57" height="2.85"/><rect x="-4.36" y="43.12" width="11.57" height="2.85" transform="translate(45.98 43.12) rotate(90)"/><rect x="-4.36" y="4.36" width="11.57" height="2.85" transform="translate(7.21 4.36) rotate(90)"/><rect width="11.57" height="2.85" transform="translate(11.57 2.85) rotate(180)"/><rect x="128.61" width="11.57" height="2.85" transform="translate(268.78 2.85) rotate(180)"/><rect x="132.97" y="4.36" width="11.57" height="2.85" transform="translate(132.97 144.53) rotate(-90)"/><rect x="132.97" y="43.12" width="11.57" height="2.85" transform="translate(94.2 183.3) rotate(-90)"/><rect x="128.61" y="47.48" width="11.57" height="2.85"/></g></g></svg>